<svg width="500" height="500" viewBox="0 0 500 500" fill="none" xmlns="http://www.w3.org/2000/svg">
<path d="M500 382.4H0V382.65H500V382.4Z" fill="#EBEBEB"/>
<path d="M449.899 398.49H416.779V398.74H449.899V398.49Z" fill="#EBEBEB"/>
<path d="M331.219 401.21H322.529V401.46H331.219V401.21Z" fill="#EBEBEB"/>
<path d="M415.78 389.21H396.59V389.46H415.78V389.21Z" fill="#EBEBEB"/>
<path d="M95.6509 390.89H52.4609V391.14H95.6509V390.89Z" fill="#EBEBEB"/>
<path d="M110.891 390.89H104.561V391.14H110.891V390.89Z" fill="#EBEBEB"/>
<path d="M225.151 395.11H131.471V395.36H225.151V395.11Z" fill="#EBEBEB"/>
<path d="M237.001 337.8H43.9109C42.3983 337.797 40.9485 337.195 39.8798 336.124C38.8112 335.053 38.2109 333.603 38.2109 332.09V60.66C38.2241 59.156 38.8301 57.718 39.8974 56.6582C40.9646 55.5985 42.4069 55.0026 43.9109 55H237.001C238.515 55 239.968 55.6016 241.039 56.6724C242.109 57.7433 242.711 59.1956 242.711 60.71V332.09C242.711 333.604 242.109 335.057 241.039 336.128C239.968 337.198 238.515 337.8 237.001 337.8ZM43.9109 55.2C42.4646 55.2026 41.0784 55.7791 40.0566 56.8027C39.0348 57.8264 38.4609 59.2136 38.4609 60.66V332.09C38.4609 333.536 39.0348 334.924 40.0566 335.947C41.0784 336.971 42.4646 337.547 43.9109 337.55H237.001C238.448 337.547 239.835 336.971 240.859 335.948C241.882 334.924 242.458 333.537 242.461 332.09V60.66C242.458 59.2127 241.882 57.8255 240.859 56.8021C239.835 55.7787 238.448 55.2026 237.001 55.2H43.9109Z" fill="#EBEBEB"/>
<path d="M453.31 337.8H260.21C258.696 337.797 257.246 337.195 256.175 336.125C255.105 335.054 254.503 333.604 254.5 332.09V60.66C254.516 59.1551 255.124 57.7171 256.193 56.6576C257.262 55.5981 258.705 55.0025 260.21 55H453.31C454.812 55.0052 456.252 55.6022 457.317 56.6617C458.382 57.7212 458.987 59.1578 459 60.66V332.09C459 333.601 458.401 335.05 457.335 336.121C456.268 337.191 454.821 337.795 453.31 337.8ZM260.21 55.2C258.763 55.2026 257.375 55.7787 256.352 56.8021C255.329 57.8255 254.753 59.2127 254.75 60.66V332.09C254.753 333.537 255.329 334.924 256.352 335.948C257.375 336.971 258.763 337.547 260.21 337.55H453.31C454.757 337.547 456.145 336.971 457.168 335.948C458.191 334.924 458.767 333.537 458.77 332.09V60.66C458.767 59.2127 458.191 57.8255 457.168 56.8021C456.145 55.7787 454.757 55.2026 453.31 55.2H260.21Z" fill="#EBEBEB"/>
<path d="M74.5402 250.87L230.16 250.87L230.16 79.77L74.5402 79.77L74.5402 250.87Z" fill="#E6E6E6"/>
<path d="M69.4591 250.87L227.789 250.87L227.789 79.77L69.4591 79.77L69.4591 250.87Z" fill="#F0F0F0"/>
<path d="M74.5501 250.87H230.17V258.33H69.5801L74.5501 250.87Z" fill="#E6E6E6"/>
<path d="M61.0093 250.87H219.329L214.359 258.33H56.0293L61.0093 250.87Z" fill="#F0F0F0"/>
<path d="M220.689 243.76V86.88L76.5794 86.88V243.76H220.689Z" fill="#FAFAFA"/>
<path d="M196.411 243.76L140.751 86.89H121.051L176.711 243.76H196.411Z" fill="white"/>
<path d="M217.39 238.78C217.462 238.78 217.533 238.766 217.6 238.738C217.667 238.71 217.727 238.67 217.779 238.619C217.83 238.568 217.87 238.507 217.898 238.44C217.925 238.374 217.94 238.302 217.94 238.23V91.51C217.937 91.3658 217.878 91.2285 217.775 91.1275C217.672 91.0265 217.534 90.9699 217.39 90.97C217.319 90.97 217.248 90.9839 217.183 91.0111C217.117 91.0382 217.058 91.078 217.008 91.1281C216.958 91.1783 216.918 91.2378 216.891 91.3033C216.864 91.3688 216.85 91.4391 216.85 91.51V238.23C216.85 238.374 216.906 238.513 217.007 238.615C217.108 238.718 217.245 238.777 217.39 238.78Z" fill="#F0F0F0"/>
<path d="M154.481 243.76L98.8206 86.89H91.1406L146.801 243.76H154.481Z" fill="white"/>
<path d="M77.4805 243.77L77.4805 86.89H76.5805L76.5805 243.77H77.4805Z" fill="#E6E6E6"/>
<path opacity="0.5" d="M67.7793 100.61H223.409L224.059 89.65H68.4393L67.7793 100.61Z" fill="#E0E0E0"/>
<path opacity="0.5" d="M67.7793 118.62H223.409L224.059 107.66H68.4393L67.7793 118.62Z" fill="#E0E0E0"/>
<path opacity="0.5" d="M67.7793 136.63H223.409L224.059 125.68H68.4393L67.7793 136.63Z" fill="#E0E0E0"/>
<path opacity="0.5" d="M67.7793 154.64H223.409L224.059 143.69H68.4393L67.7793 154.64Z" fill="#E0E0E0"/>
<path opacity="0.5" d="M67.7793 172.66H223.409L224.059 161.7H68.4393L67.7793 172.66Z" fill="#E0E0E0"/>
<path opacity="0.5" d="M67.7793 190.67H223.409L224.059 179.71H68.4393L67.7793 190.67Z" fill="#E0E0E0"/>
<path d="M424.679 103H301.369V158.25H424.679V103Z" fill="#F5F5F5"/>
<path d="M424.679 103H301.369V104.94H424.679V103Z" fill="#E0E0E0"/>
<path d="M424.679 156.31H301.369V158.25H424.679V156.31Z" fill="#E0E0E0"/>
<path d="M361.089 382.4L359.359 158.25H366.689L364.959 382.4H361.089Z" fill="#EBEBEB"/>
<path d="M308.641 382.4L374.471 158.25H381.811L312.511 382.4H308.641Z" fill="#EBEBEB"/>
<path d="M417.42 382.4L351.59 158.25H344.25L413.55 382.4H417.42Z" fill="#EBEBEB"/>
<path d="M81.2303 386.23H88.3203L88.3203 292.45H81.2303L81.2303 386.23Z" fill="#E6E6E6"/>
<path d="M78.9802 386.23H83.9102L83.9102 292.45H78.9802L78.9802 386.23Z" fill="#F0F0F0"/>
<path d="M234.211 288.08H77.3809V301.15H234.211V288.08Z" fill="#F0F0F0"/>
<path d="M230.17 381.87H237.26V301.16H230.17V381.87Z" fill="#E6E6E6"/>
<path d="M227.929 381.87H232.859V301.16H227.929V381.87Z" fill="#F0F0F0"/>
<path d="M280.66 381.87H287.75V301.16H280.66V381.87Z" fill="#E6E6E6"/>
<path d="M278.42 381.87H283.35V301.16H278.42V381.87Z" fill="#F0F0F0"/>
<path d="M126.121 381.87H133.211V301.16H126.121L126.121 381.87Z" fill="#E6E6E6"/>
<path d="M123.871 381.87H128.801V301.16H123.871L123.871 381.87Z" fill="#F0F0F0"/>
<path d="M234.199 301.16H289.359V288.09H234.199V301.16Z" fill="#E6E6E6"/>
<path d="M201.181 278.32H133.211V288.08H201.181V278.32Z" fill="#EBEBEB"/>
<path d="M201.181 288.09H234.461V278.33H201.181V288.09Z" fill="#E0E0E0"/>
<path d="M209.78 283.21H225.86C226.622 283.21 227.24 282.592 227.24 281.83C227.24 281.068 226.622 280.45 225.86 280.45H209.78C209.018 280.45 208.4 281.068 208.4 281.83C208.4 282.592 209.018 283.21 209.78 283.21Z" fill="#F5F5F5"/>
<path d="M169.651 271.31H155.961V278.32H169.651V271.31Z" fill="#F5F5F5"/>
<path d="M163.301 268.38H162.311V271.31H163.301V268.38Z" fill="#E6E6E6"/>
<path d="M181.859 272.53H180.869V273.99H181.859V272.53Z" fill="#E6E6E6"/>
<path d="M189.699 273.99H173.029V278.32H189.699V273.99Z" fill="#F0F0F0"/>
<path d="M249.999 427.56C357.082 427.56 443.889 422.492 443.889 416.24C443.889 409.988 357.082 404.92 249.999 404.92C142.917 404.92 56.1094 409.988 56.1094 416.24C56.1094 422.492 142.917 427.56 249.999 427.56Z" fill="#F5F5F5"/>
<path d="M228.68 91.54H221.68V92.54H228.68V91.54Z" fill="#67BC45"/>
<path d="M215.219 91.54H181.189V92.54H215.219V91.54Z" fill="#67BC45"/>
<path d="M401.46 231.56H87.1001C83.9923 231.49 81.0143 230.3 78.7139 228.209C76.4136 226.118 74.9456 223.267 74.5801 220.18L63.1301 106.42C62.9463 104.977 63.075 103.512 63.5074 102.124C63.9398 100.735 64.6657 99.456 65.6361 98.3728C66.6064 97.2896 67.7983 96.4278 69.1311 95.8458C70.4638 95.2639 71.9061 94.9754 73.3601 95H387.72C390.828 95.0718 393.807 96.262 396.108 98.3524C398.41 100.443 399.88 103.293 400.25 106.38L411.69 220.14C411.876 221.583 411.748 223.049 411.316 224.438C410.885 225.827 410.159 227.107 409.188 228.191C408.217 229.274 407.025 230.136 405.691 230.717C404.358 231.299 402.915 231.586 401.46 231.56Z" fill="#67BC45"/>
<path opacity="0.3" d="M132.11 223H94.3003C91.3511 222.93 88.526 221.799 86.3424 219.816C84.1588 217.833 82.7628 215.129 82.4103 212.2L72.5703 114.35C72.3995 112.983 72.5245 111.596 72.9367 110.282C73.349 108.968 74.0389 107.758 74.9597 106.733C75.8806 105.709 77.0108 104.895 78.2738 104.346C79.5369 103.796 80.9032 103.525 82.2803 103.55H120.09C123.049 103.612 125.885 104.743 128.074 106.734C130.263 108.725 131.658 111.441 132 114.38L141.85 212.23C142.017 213.597 141.888 214.984 141.471 216.296C141.055 217.609 140.362 218.817 139.438 219.838C138.515 220.859 137.382 221.67 136.118 222.216C134.854 222.761 133.487 223.029 132.11 223Z" fill="white"/>
<path d="M198.211 227H158.321C155.208 226.928 152.226 225.735 149.923 223.641C147.619 221.547 146.148 218.692 145.781 215.6L135.251 111C135.065 109.555 135.193 108.087 135.626 106.696C136.059 105.305 136.786 104.023 137.759 102.938C138.732 101.854 139.927 100.991 141.262 100.41C142.598 99.8289 144.044 99.5424 145.501 99.5701H185.391C188.508 99.6411 191.495 100.837 193.8 102.938C196.105 105.039 197.572 107.902 197.931 111L208.461 215.68C208.627 217.116 208.486 218.572 208.044 219.949C207.603 221.326 206.873 222.592 205.902 223.664C204.932 224.736 203.744 225.588 202.417 226.163C201.09 226.739 199.656 227.024 198.211 227Z" fill="white"/>
<path opacity="0.3" d="M261.431 223H223.621C220.672 222.932 217.847 221.802 215.665 219.818C213.482 217.834 212.089 215.129 211.741 212.2L201.891 114.35C201.72 112.983 201.845 111.596 202.257 110.282C202.669 108.968 203.359 107.758 204.28 106.733C205.201 105.709 206.331 104.895 207.594 104.346C208.857 103.796 210.224 103.525 211.601 103.55H249.411C252.36 103.62 255.185 104.751 257.368 106.734C259.552 108.717 260.948 111.421 261.301 114.35L271.141 212.2C271.311 213.567 271.186 214.954 270.774 216.268C270.362 217.582 269.672 218.793 268.751 219.817C267.83 220.841 266.7 221.655 265.437 222.204C264.174 222.754 262.808 223.025 261.431 223Z" fill="white"/>
<path opacity="0.2" d="M326.09 223H288.28C285.332 222.93 282.508 221.799 280.326 219.815C278.144 217.832 276.75 215.128 276.4 212.2L266.55 114.35C266.383 112.983 266.51 111.596 266.924 110.283C267.338 108.969 268.029 107.76 268.951 106.737C269.872 105.713 271.002 104.899 272.265 104.349C273.527 103.799 274.893 103.527 276.27 103.55H314.07C317.031 103.612 319.869 104.742 322.062 106.732C324.254 108.723 325.653 111.439 326 114.38L335.84 212.23C336.007 213.598 335.877 214.985 335.461 216.299C335.044 217.612 334.35 218.82 333.425 219.842C332.5 220.863 331.367 221.674 330.101 222.219C328.835 222.764 327.468 223.03 326.09 223Z" fill="white"/>
<path opacity="0.1" d="M390.75 223H352.94C349.992 222.93 347.168 221.799 344.986 219.815C342.804 217.832 341.411 215.128 341.06 212.2L331.21 114.35C331.043 112.983 331.17 111.596 331.584 110.283C331.999 108.969 332.69 107.76 333.611 106.737C334.532 105.713 335.662 104.899 336.925 104.349C338.187 103.799 339.553 103.527 340.93 103.55H378.73C381.679 103.62 384.504 104.751 386.688 106.734C388.872 108.717 390.268 111.421 390.62 114.35L400.46 212.2C400.631 213.567 400.506 214.954 400.094 216.268C399.681 217.582 398.992 218.793 398.071 219.817C397.15 220.841 396.02 221.655 394.757 222.204C393.494 222.754 392.127 223.025 390.75 223Z" fill="white"/>
<path d="M245.22 135.62C245.035 134.12 244.316 132.737 243.193 131.725C242.071 130.713 240.621 130.14 239.11 130.11C238.424 130.109 237.744 130.245 237.11 130.51C236.454 129.384 235.518 128.445 234.394 127.785C233.269 127.125 231.994 126.765 230.69 126.74C229.215 126.713 227.783 127.237 226.673 128.21C225.564 129.183 224.857 130.534 224.69 132C223.986 132.034 223.296 132.214 222.664 132.528C222.032 132.842 221.472 133.284 221.019 133.825C220.566 134.366 220.231 134.995 220.033 135.672C219.835 136.349 219.78 137.06 219.87 137.76C220.054 139.329 220.799 140.779 221.968 141.841C223.137 142.904 224.651 143.507 226.23 143.54H244.61C245.133 143.55 245.652 143.447 246.132 143.239C246.612 143.03 247.041 142.721 247.391 142.332C247.741 141.944 248.004 141.484 248.16 140.985C248.317 140.486 248.365 139.959 248.3 139.44C248.194 138.579 247.85 137.766 247.305 137.091C246.761 136.416 246.039 135.906 245.22 135.62Z" fill="white"/>
<path d="M181.51 125.88C181.291 124.131 180.451 122.518 179.142 121.338C177.833 120.157 176.142 119.487 174.38 119.45C173.563 119.447 172.754 119.607 172 119.92C171.233 118.607 170.141 117.512 168.829 116.742C167.518 115.971 166.03 115.551 164.51 115.52C162.789 115.491 161.119 116.104 159.825 117.239C158.531 118.374 157.706 119.95 157.51 121.66C156.688 121.704 155.884 121.918 155.148 122.286C154.412 122.654 153.76 123.17 153.232 123.801C152.704 124.433 152.311 125.166 152.079 125.955C151.846 126.744 151.778 127.573 151.88 128.39C152.092 130.223 152.962 131.918 154.328 133.159C155.694 134.4 157.464 135.104 159.31 135.14H180.78C181.39 135.152 181.995 135.032 182.555 134.79C183.115 134.547 183.617 134.187 184.025 133.734C184.434 133.28 184.741 132.744 184.924 132.162C185.108 131.58 185.164 130.966 185.09 130.36C184.966 129.355 184.566 128.404 183.934 127.613C183.302 126.822 182.463 126.222 181.51 125.88Z" fill="#67BC45"/>
<path d="M162.551 145.55C162.329 145.55 162.116 145.468 161.951 145.32C161.863 145.242 161.792 145.147 161.741 145.042C161.69 144.936 161.66 144.822 161.654 144.705C161.647 144.587 161.664 144.47 161.703 144.36C161.742 144.249 161.802 144.147 161.881 144.06L167.461 137.86C167.622 137.7 167.839 137.608 168.066 137.602C168.294 137.597 168.514 137.679 168.683 137.831C168.852 137.983 168.956 138.194 168.974 138.421C168.993 138.648 168.923 138.873 168.781 139.05L163.211 145.25C163.128 145.344 163.027 145.419 162.913 145.471C162.799 145.523 162.676 145.55 162.551 145.55Z" fill="#67BC45"/>
<path d="M168.871 145.55C168.649 145.55 168.436 145.468 168.271 145.32C168.183 145.242 168.112 145.147 168.061 145.042C168.01 144.936 167.981 144.822 167.974 144.705C167.968 144.587 167.984 144.47 168.023 144.36C168.062 144.249 168.123 144.147 168.201 144.06L173.781 137.86C173.942 137.7 174.159 137.608 174.386 137.602C174.614 137.597 174.835 137.679 175.004 137.831C175.172 137.983 175.277 138.194 175.295 138.421C175.313 138.648 175.244 138.873 175.101 139.05L169.531 145.25C169.449 145.344 169.347 145.419 169.233 145.471C169.119 145.523 168.996 145.55 168.871 145.55Z" fill="#67BC45"/>
<path d="M156.23 145.55C156.009 145.55 155.795 145.468 155.63 145.32C155.543 145.242 155.471 145.147 155.42 145.042C155.369 144.936 155.34 144.822 155.333 144.705C155.327 144.587 155.344 144.47 155.383 144.36C155.421 144.249 155.482 144.147 155.56 144.06L161.14 137.86C161.302 137.7 161.518 137.608 161.746 137.602C161.973 137.597 162.194 137.679 162.363 137.831C162.532 137.983 162.636 138.194 162.654 138.421C162.672 138.648 162.603 138.873 162.46 139.05L156.89 145.25C156.808 145.344 156.706 145.419 156.593 145.471C156.479 145.523 156.355 145.55 156.23 145.55Z" fill="#67BC45"/>
<g opacity="0.4">
<path d="M372.551 131.45C372.388 130.158 371.766 128.967 370.799 128.095C369.831 127.223 368.583 126.728 367.281 126.7C366.677 126.696 366.079 126.811 365.521 127.04C364.954 126.07 364.148 125.262 363.18 124.693C362.212 124.124 361.114 123.813 359.991 123.79C358.714 123.762 357.473 124.212 356.511 125.052C355.549 125.892 354.935 127.061 354.791 128.33C354.18 128.361 353.583 128.517 353.036 128.791C352.489 129.064 352.005 129.448 351.614 129.918C351.223 130.387 350.934 130.933 350.765 131.521C350.595 132.108 350.55 132.724 350.631 133.33C350.787 134.686 351.43 135.939 352.439 136.859C353.448 137.778 354.756 138.3 356.121 138.33H372.001C372.451 138.34 372.898 138.252 373.311 138.073C373.725 137.893 374.094 137.627 374.395 137.292C374.696 136.957 374.921 136.561 375.055 136.131C375.189 135.701 375.228 135.247 375.171 134.8C375.093 134.052 374.806 133.341 374.343 132.748C373.879 132.155 373.258 131.706 372.551 131.45Z" fill="white"/>
<path d="M358.541 146C358.378 146.003 358.22 145.942 358.101 145.83C357.971 145.713 357.893 145.55 357.884 145.375C357.874 145.201 357.934 145.03 358.051 144.9L362.051 140.5C362.109 140.434 362.179 140.381 362.257 140.342C362.336 140.304 362.421 140.281 362.508 140.275C362.596 140.27 362.683 140.282 362.766 140.31C362.849 140.338 362.925 140.382 362.991 140.44C363.056 140.498 363.11 140.568 363.149 140.647C363.187 140.725 363.21 140.81 363.215 140.898C363.221 140.985 363.209 141.072 363.181 141.155C363.153 141.238 363.109 141.314 363.051 141.38L359.051 145.78C358.988 145.853 358.909 145.91 358.821 145.948C358.733 145.986 358.637 146.004 358.541 146Z" fill="white"/>
<path d="M363.21 146C363.129 146.002 363.048 145.989 362.973 145.959C362.897 145.93 362.828 145.886 362.77 145.83C362.708 145.77 362.659 145.697 362.625 145.617C362.592 145.538 362.574 145.452 362.574 145.365C362.574 145.278 362.592 145.193 362.625 145.113C362.659 145.033 362.708 144.961 362.77 144.9L366.77 140.5C366.828 140.434 366.898 140.381 366.976 140.342C367.055 140.304 367.14 140.281 367.228 140.275C367.315 140.27 367.402 140.282 367.485 140.31C367.568 140.338 367.644 140.382 367.71 140.44C367.776 140.498 367.829 140.568 367.868 140.647C367.906 140.725 367.929 140.81 367.935 140.898C367.94 140.985 367.929 141.072 367.9 141.155C367.872 141.238 367.828 141.314 367.77 141.38L363.77 145.78C363.702 145.86 363.615 145.922 363.517 145.96C363.42 145.998 363.314 146.012 363.21 146Z" fill="white"/>
<path d="M353.871 146C353.708 146.001 353.551 145.941 353.431 145.83C353.301 145.713 353.223 145.55 353.214 145.375C353.204 145.201 353.265 145.03 353.381 144.9L357.381 140.5C357.498 140.37 357.661 140.292 357.836 140.283C358.01 140.274 358.181 140.334 358.311 140.45C358.376 140.507 358.429 140.577 358.467 140.655C358.505 140.733 358.527 140.818 358.532 140.905C358.537 140.991 358.524 141.078 358.495 141.16C358.465 141.241 358.42 141.316 358.361 141.38L354.361 145.78C354.3 145.85 354.225 145.906 354.14 145.944C354.055 145.982 353.964 146.001 353.871 146Z" fill="white"/>
</g>
<g opacity="0.7">
<path d="M303.52 136.29C303.602 136.931 303.545 137.583 303.352 138.2C303.16 138.817 302.837 139.385 302.405 139.866C301.973 140.348 301.443 140.73 300.85 140.988C300.257 141.245 299.616 141.372 298.97 141.36C297.585 141.331 296.259 140.801 295.235 139.869C294.211 138.937 293.559 137.665 293.4 136.29C293.318 135.649 293.375 134.998 293.567 134.382C293.759 133.765 294.083 133.197 294.515 132.717C294.947 132.236 295.477 131.855 296.07 131.598C296.663 131.342 297.304 131.216 297.95 131.23C299.333 131.259 300.658 131.788 301.682 132.718C302.706 133.648 303.358 134.916 303.52 136.29Z" fill="white"/>
<path d="M299.449 146.55C299.342 146.55 299.238 146.511 299.159 146.439C299.079 146.366 299.029 146.267 299.019 146.16L298.779 143.85C298.768 143.735 298.803 143.62 298.876 143.53C298.949 143.44 299.054 143.383 299.169 143.37C299.285 143.359 299.4 143.393 299.489 143.466C299.579 143.539 299.637 143.645 299.649 143.76L299.879 146.07C299.885 146.127 299.879 146.184 299.863 146.238C299.846 146.292 299.819 146.343 299.782 146.386C299.746 146.43 299.702 146.466 299.651 146.492C299.601 146.519 299.546 146.535 299.489 146.54L299.449 146.55Z" fill="white"/>
<path d="M297.699 129.22C297.591 129.218 297.487 129.176 297.408 129.102C297.328 129.028 297.279 128.928 297.269 128.82L297.039 126.52C297.028 126.405 297.063 126.29 297.136 126.2C297.209 126.11 297.314 126.053 297.429 126.04C297.486 126.034 297.543 126.04 297.597 126.057C297.651 126.074 297.702 126.101 297.745 126.137C297.789 126.173 297.825 126.218 297.852 126.268C297.878 126.318 297.894 126.373 297.899 126.43L298.139 128.74C298.145 128.797 298.139 128.854 298.122 128.908C298.106 128.962 298.078 129.013 298.042 129.056C298.006 129.1 297.961 129.136 297.911 129.162C297.861 129.189 297.806 129.205 297.749 129.21L297.699 129.22Z" fill="white"/>
<path d="M291 136.73H288.69C288.575 136.727 288.465 136.68 288.385 136.598C288.305 136.515 288.26 136.405 288.26 136.29C288.26 136.176 288.305 136.067 288.386 135.986C288.466 135.905 288.576 135.86 288.69 135.86H291C291.114 135.86 291.223 135.905 291.304 135.986C291.384 136.067 291.43 136.176 291.43 136.29C291.43 136.405 291.385 136.515 291.304 136.598C291.224 136.68 291.115 136.727 291 136.73Z" fill="white"/>
<path d="M308.28 136.73H306C305.885 136.727 305.776 136.68 305.696 136.598C305.615 136.515 305.57 136.405 305.57 136.29C305.57 136.176 305.616 136.067 305.696 135.986C305.777 135.905 305.886 135.86 306 135.86H308.31C308.424 135.86 308.534 135.905 308.614 135.986C308.695 136.067 308.74 136.176 308.74 136.29C308.74 136.349 308.728 136.408 308.705 136.463C308.682 136.518 308.647 136.567 308.604 136.608C308.561 136.65 308.511 136.682 308.455 136.702C308.399 136.723 308.34 136.733 308.28 136.73Z" fill="white"/>
<path d="M306.099 143.67C305.992 143.668 305.89 143.629 305.809 143.56L304.009 141.93C303.932 141.85 303.888 141.743 303.887 141.632C303.885 141.52 303.926 141.412 304.001 141.33C304.076 141.247 304.179 141.196 304.29 141.187C304.401 141.178 304.511 141.211 304.599 141.28L306.389 142.91C306.471 142.992 306.517 143.104 306.517 143.22C306.517 143.336 306.471 143.448 306.389 143.53C306.314 143.612 306.21 143.663 306.099 143.67Z" fill="white"/>
<path d="M292.611 131.42C292.502 131.417 292.399 131.374 292.321 131.3L290.531 129.67C290.488 129.632 290.454 129.586 290.43 129.535C290.406 129.483 290.392 129.428 290.389 129.371C290.386 129.315 290.395 129.258 290.414 129.204C290.433 129.151 290.462 129.102 290.501 129.06C290.539 129.018 290.585 128.984 290.636 128.96C290.687 128.935 290.743 128.921 290.799 128.919C290.856 128.916 290.913 128.924 290.966 128.943C291.019 128.962 291.068 128.992 291.111 129.03L292.911 130.66C292.974 130.72 293.019 130.798 293.038 130.884C293.057 130.97 293.05 131.06 293.018 131.141C292.986 131.223 292.929 131.294 292.857 131.343C292.784 131.393 292.698 131.42 292.611 131.42Z" fill="white"/>
<path d="M292.22 143.67C292.113 143.67 292.01 143.631 291.93 143.56C291.889 143.52 291.858 143.473 291.836 143.42C291.814 143.368 291.803 143.312 291.803 143.255C291.803 143.198 291.814 143.142 291.836 143.09C291.858 143.037 291.889 142.99 291.93 142.95L293.4 141.32C293.44 141.28 293.487 141.248 293.539 141.226C293.592 141.204 293.648 141.193 293.705 141.193C293.761 141.193 293.817 141.204 293.87 141.226C293.922 141.248 293.97 141.28 294.01 141.32C294.091 141.402 294.137 141.514 294.137 141.63C294.137 141.746 294.091 141.858 294.01 141.94L292.54 143.57C292.45 143.643 292.335 143.679 292.22 143.67Z" fill="white"/>
<path d="M303.239 131.42C303.185 131.421 303.132 131.41 303.082 131.39C303.032 131.369 302.987 131.338 302.949 131.3C302.909 131.26 302.877 131.212 302.855 131.16C302.833 131.108 302.822 131.052 302.822 130.995C302.822 130.938 302.833 130.882 302.855 130.83C302.877 130.777 302.909 130.73 302.949 130.69L304.419 129.06C304.5 128.992 304.603 128.955 304.709 128.956C304.815 128.958 304.917 128.998 304.996 129.068C305.075 129.139 305.126 129.235 305.139 129.34C305.153 129.445 305.128 129.552 305.069 129.64L303.599 131.27C303.556 131.322 303.5 131.363 303.438 131.389C303.375 131.415 303.307 131.426 303.239 131.42Z" fill="white"/>
</g>
<path d="M114.289 135C114.131 133.724 113.518 132.547 112.563 131.686C111.608 130.825 110.375 130.336 109.089 130.31C108.495 130.31 107.907 130.429 107.359 130.66C106.801 129.701 106.006 128.902 105.05 128.34C104.093 127.778 103.008 127.471 101.899 127.45C100.638 127.41 99.4081 127.849 98.4566 128.678C97.5051 129.507 96.9024 130.665 96.7692 131.92C96.1691 131.951 95.5818 132.106 95.0441 132.374C94.5064 132.642 94.0298 133.018 93.644 133.479C93.2583 133.94 92.9718 134.475 92.8023 135.052C92.6329 135.628 92.5842 136.234 92.6592 136.83C92.816 138.166 93.4512 139.401 94.4475 140.305C95.4439 141.21 96.7339 141.723 98.0792 141.75H113.729C114.175 141.759 114.617 141.672 115.026 141.495C115.435 141.318 115.8 141.055 116.098 140.724C116.396 140.393 116.62 140.001 116.753 139.576C116.886 139.151 116.925 138.702 116.869 138.26C116.779 137.532 116.491 136.843 116.036 136.268C115.581 135.694 114.977 135.255 114.289 135Z" fill="white"/>
<path d="M98.701 126.61C97.9163 126.997 97.2221 127.546 96.6638 128.219C96.1055 128.893 95.6957 129.677 95.461 130.52C94.4036 130.765 93.4429 131.318 92.701 132.11C91.7519 131.334 91.1422 130.218 91.001 129C90.9319 128.454 90.9813 127.9 91.1458 127.374C91.3103 126.849 91.586 126.366 91.9542 125.957C92.3224 125.548 92.7744 125.223 93.2795 125.004C93.7846 124.786 94.3308 124.679 94.881 124.69C95.6225 124.695 96.353 124.87 97.0155 125.203C97.6781 125.536 98.2549 126.018 98.701 126.61Z" fill="white"/>
<path d="M94.701 123C94.6094 123.001 94.5209 122.967 94.4526 122.906C94.3842 122.845 94.3409 122.761 94.331 122.67L94.141 120.67C94.1355 120.622 94.1397 120.573 94.1535 120.527C94.1672 120.48 94.1902 120.437 94.221 120.4C94.2518 120.363 94.2898 120.332 94.3328 120.309C94.3757 120.287 94.4228 120.274 94.471 120.27C94.5191 120.265 94.5678 120.269 94.6142 120.283C94.6607 120.296 94.7038 120.319 94.7412 120.35C94.7785 120.381 94.8093 120.419 94.8316 120.462C94.8539 120.505 94.8673 120.552 94.871 120.6L95.071 122.6C95.0766 122.649 95.0724 122.698 95.0588 122.745C95.0452 122.792 95.0223 122.836 94.9916 122.874C94.9609 122.912 94.923 122.944 94.88 122.967C94.8369 122.99 94.7897 123.005 94.741 123.01L94.701 123Z" fill="white"/>
<path d="M89.001 129.36H87.001C86.9524 129.36 86.9043 129.35 86.8594 129.332C86.8145 129.313 86.7737 129.286 86.7394 129.252C86.705 129.217 86.6778 129.177 86.6592 129.132C86.6406 129.087 86.631 129.039 86.631 128.99C86.6296 128.941 86.6382 128.892 86.6564 128.847C86.6745 128.801 86.7017 128.76 86.7363 128.725C86.7709 128.691 86.8123 128.663 86.8578 128.645C86.9033 128.627 86.952 128.619 87.001 128.62H89.001C89.0991 128.62 89.1932 128.659 89.2626 128.728C89.332 128.798 89.371 128.892 89.371 128.99C89.3685 129.087 89.3287 129.18 89.2598 129.249C89.191 129.318 89.0983 129.357 89.001 129.36Z" fill="white"/>
<path d="M90.3704 124.83C90.279 124.831 90.1902 124.799 90.1204 124.74L88.5904 123.35C88.5175 123.284 88.4739 123.191 88.4692 123.093C88.4645 122.994 88.4991 122.898 88.5654 122.825C88.6317 122.752 88.7243 122.708 88.8227 122.704C88.9212 122.699 89.0175 122.734 89.0904 122.8L90.6204 124.19C90.6888 124.259 90.7272 124.353 90.7272 124.45C90.7272 124.547 90.6888 124.641 90.6204 124.71C90.5887 124.746 90.5503 124.774 90.5074 124.795C90.4645 124.816 90.4179 124.828 90.3704 124.83Z" fill="white"/>
<path d="M89.9993 135.27C89.9531 135.271 89.9072 135.262 89.8643 135.245C89.8214 135.228 89.7823 135.202 89.7493 135.17C89.6809 135.101 89.6426 135.007 89.6426 134.91C89.6426 134.813 89.6809 134.719 89.7493 134.65L90.9993 133.26C91.0714 133.193 91.1661 133.156 91.2643 133.156C91.3626 133.156 91.4572 133.193 91.5293 133.26C91.5984 133.331 91.637 133.426 91.637 133.525C91.637 133.624 91.5984 133.719 91.5293 133.79L90.2793 135.18C90.2416 135.214 90.1972 135.239 90.1489 135.255C90.1007 135.27 90.0497 135.276 89.9993 135.27Z" fill="white"/>
<path d="M99.4102 124.83C99.3386 124.832 99.268 124.813 99.2074 124.775C99.1467 124.737 99.0989 124.681 99.0699 124.616C99.0409 124.55 99.0321 124.478 99.0446 124.407C99.0571 124.337 99.0904 124.272 99.1402 124.22L100.39 122.83C100.459 122.762 100.553 122.723 100.65 122.723C100.748 122.723 100.841 122.762 100.91 122.83C100.976 122.9 101.013 122.993 101.013 123.09C101.013 123.187 100.976 123.28 100.91 123.35L99.6602 124.74C99.59 124.798 99.5015 124.83 99.4102 124.83Z" fill="white"/>
<path d="M130.541 202.71H91.7808C91.265 202.697 90.7711 202.499 90.3892 202.152C90.0074 201.805 89.763 201.332 89.7008 200.82L89.3108 196.93C89.2822 196.692 89.305 196.45 89.3778 196.221C89.4506 195.992 89.5716 195.781 89.7327 195.603C89.8939 195.425 90.0913 195.283 90.3118 195.188C90.5323 195.092 90.7706 195.045 91.0108 195.05H129.771C130.284 195.063 130.775 195.26 131.155 195.605C131.535 195.95 131.779 196.421 131.841 196.93L132.231 200.82C132.261 201.058 132.239 201.301 132.168 201.53C132.096 201.759 131.977 201.971 131.816 202.15C131.656 202.329 131.459 202.472 131.239 202.568C131.019 202.665 130.781 202.713 130.541 202.71Z" fill="white"/>
<path d="M197.261 204.42H154.721C154.155 204.407 153.613 204.191 153.194 203.811C152.775 203.43 152.508 202.912 152.441 202.35L152.011 198.08C151.978 197.818 152.001 197.552 152.08 197.3C152.159 197.048 152.291 196.816 152.467 196.62C152.644 196.424 152.861 196.267 153.103 196.162C153.345 196.057 153.607 196.005 153.871 196.01H196.421C196.986 196.023 197.528 196.239 197.947 196.62C198.366 197 198.633 197.518 198.701 198.08L199.131 202.35C199.162 202.612 199.137 202.879 199.057 203.131C198.977 203.382 198.844 203.614 198.667 203.81C198.489 204.007 198.272 204.163 198.03 204.268C197.787 204.373 197.525 204.425 197.261 204.42Z" fill="#67BC45"/>
<path d="M259.86 202.71H221.1C220.586 202.697 220.093 202.498 219.713 202.151C219.333 201.804 219.09 201.331 219.03 200.82L218.64 196.93C218.61 196.692 218.631 196.45 218.703 196.221C218.775 195.992 218.895 195.782 219.055 195.603C219.215 195.425 219.412 195.283 219.632 195.188C219.852 195.092 220.09 195.045 220.33 195.05H259.09C259.604 195.061 260.097 195.257 260.477 195.603C260.857 195.948 261.1 196.42 261.16 196.93L261.56 200.82C261.589 201.059 261.566 201.301 261.493 201.531C261.42 201.76 261.3 201.971 261.139 202.15C260.978 202.329 260.78 202.472 260.56 202.568C260.339 202.665 260.101 202.713 259.86 202.71Z" fill="white"/>
<path opacity="0.7" d="M324.52 202.71H285.76C285.246 202.697 284.753 202.498 284.373 202.151C283.993 201.804 283.75 201.331 283.69 200.82L283.3 196.93C283.27 196.692 283.292 196.45 283.363 196.221C283.435 195.992 283.555 195.782 283.715 195.603C283.876 195.425 284.072 195.283 284.293 195.188C284.513 195.092 284.751 195.045 284.99 195.05H323.75C324.264 195.061 324.757 195.257 325.137 195.603C325.518 195.948 325.76 196.42 325.82 196.93L326.22 200.82C326.249 201.059 326.226 201.301 326.153 201.531C326.081 201.76 325.96 201.971 325.799 202.15C325.638 202.329 325.441 202.472 325.22 202.568C325 202.665 324.761 202.713 324.52 202.71Z" fill="white"/>
<path opacity="0.4" d="M389.181 202.71H350.431C349.914 202.699 349.419 202.502 349.037 202.154C348.655 201.807 348.411 201.333 348.351 200.82L347.961 196.93C347.93 196.692 347.952 196.45 348.023 196.221C348.095 195.992 348.215 195.782 348.375 195.603C348.536 195.425 348.733 195.283 348.953 195.188C349.173 195.092 349.411 195.045 349.651 195.05H388.411C388.925 195.063 389.418 195.259 389.799 195.604C390.181 195.949 390.426 196.42 390.491 196.93L390.881 200.82C390.909 201.059 390.886 201.301 390.813 201.531C390.741 201.76 390.62 201.971 390.459 202.15C390.298 202.329 390.101 202.472 389.88 202.568C389.66 202.665 389.421 202.713 389.181 202.71Z" fill="white"/>
<path d="M368 167.63C370.8 172.28 373.33 176.92 375.74 181.73C378.181 186.58 380.354 191.561 382.25 196.65C382.49 197.3 382.72 197.96 382.93 198.65L383.26 199.65L383.43 200.15L383.55 200.55C383.55 200.72 383.64 200.89 383.68 201.06C384.099 203.217 383.905 205.448 383.12 207.5C382.011 210.4 380.441 213.102 378.47 215.5C375.016 219.793 371.057 223.654 366.68 227L362.91 223.1C366.021 219.136 368.886 214.985 371.49 210.67C372.078 209.662 372.612 208.624 373.09 207.56C373.52 206.65 373.855 205.699 374.09 204.72C374.28 203.9 374.19 203.25 374.09 203.39V203.32L373.91 202.9L373.57 202.05C373.34 201.49 373.1 200.92 372.84 200.35C370.84 195.8 368.48 191.23 366.06 186.7C363.64 182.17 361.06 177.61 358.6 173.18L368 167.63Z" fill="#FF8B7B"/>
<path d="M364.34 221.35L358.65 226.35L366.57 231.35C366.57 231.35 368.9 227.57 368.8 224.07L364.34 221.35Z" fill="#FF8B7B"/>
<path d="M356.57 233.83L362.63 237.73L366.57 231.38L358.65 226.38L356.57 233.83Z" fill="#FF8B7B"/>
<path d="M334.689 135.09C334.579 135.66 334.179 136.09 333.809 136C333.439 135.91 333.219 135.4 333.329 134.83C333.439 134.26 333.839 133.83 334.209 133.92C334.579 134.01 334.799 134.52 334.689 135.09Z" fill="#263238"/>
<path d="M334.241 136.08C333.219 137.698 331.977 139.165 330.551 140.44C330.887 140.798 331.298 141.077 331.754 141.259C332.21 141.44 332.701 141.519 333.191 141.49L334.241 136.08Z" fill="#FF5652"/>
<path d="M337.4 132.32C337.486 132.321 337.568 132.289 337.63 132.23C337.694 132.165 337.73 132.077 337.73 131.985C337.73 131.893 337.694 131.805 337.63 131.74C337.268 131.333 336.812 131.02 336.301 130.828C335.791 130.636 335.241 130.572 334.7 130.64C334.657 130.647 334.615 130.663 334.577 130.687C334.54 130.71 334.508 130.741 334.483 130.778C334.457 130.814 334.44 130.855 334.431 130.899C334.422 130.942 334.422 130.987 334.43 131.03C334.445 131.119 334.494 131.198 334.567 131.251C334.64 131.303 334.731 131.324 334.82 131.31C335.249 131.266 335.682 131.325 336.084 131.482C336.485 131.638 336.844 131.888 337.13 132.21C337.165 132.246 337.207 132.275 337.254 132.294C337.3 132.312 337.35 132.322 337.4 132.32Z" fill="#263238"/>
<path d="M348.399 142C347.399 147.29 346.329 157 350.029 160.51C350.029 160.51 348.579 165.87 338.759 165.87C327.949 165.87 334.009 161.33 334.009 161.33C338.589 157.33 339.739 153.19 338.719 149.09L348.399 142Z" fill="#FF8B7B"/>
<path d="M351.24 162.11C351.79 160.11 352.39 157.85 350.65 157.32C348.74 156.74 338.58 156.92 335.23 158.67C331.88 160.42 333.23 164.22 333.23 164.22L351.24 162.11Z" fill="#263238"/>
<path d="M386.319 405.69C386.028 405.795 385.718 405.84 385.409 405.823C385.1 405.806 384.797 405.726 384.519 405.59C384.413 405.489 384.341 405.358 384.313 405.215C384.284 405.072 384.3 404.924 384.359 404.79C384.391 404.679 384.447 404.577 384.523 404.491C384.599 404.404 384.693 404.336 384.799 404.29C385.799 403.82 388.019 404.74 388.109 404.78C388.139 404.793 388.164 404.815 388.182 404.843C388.2 404.87 388.209 404.902 388.209 404.935C388.209 404.968 388.2 405 388.182 405.027C388.164 405.055 388.139 405.077 388.109 405.09C387.535 405.353 386.935 405.554 386.319 405.69ZM385.139 404.53L384.939 404.6C384.877 404.627 384.822 404.667 384.778 404.717C384.733 404.767 384.699 404.826 384.679 404.89C384.589 405.2 384.679 405.3 384.739 405.33C385.129 405.66 386.579 405.33 387.589 404.95C386.815 404.626 385.977 404.482 385.139 404.53Z" fill="#67BC45"/>
<path d="M388.08 405.1H388C387.18 404.86 385.43 403.62 385.41 402.8C385.409 402.672 385.453 402.547 385.533 402.447C385.613 402.347 385.725 402.277 385.85 402.25C385.974 402.205 386.106 402.187 386.237 402.198C386.368 402.208 386.495 402.246 386.61 402.31C387.61 402.8 388.18 404.8 388.21 404.89C388.218 404.912 388.22 404.936 388.218 404.96C388.215 404.983 388.207 405.006 388.195 405.026C388.182 405.046 388.166 405.063 388.146 405.076C388.126 405.088 388.104 405.097 388.08 405.1ZM386 402.55C385.79 402.62 385.79 402.73 385.79 402.77C385.79 403.26 386.96 404.23 387.79 404.63C387.553 403.85 387.095 403.155 386.47 402.63C386.401 402.585 386.324 402.555 386.243 402.541C386.163 402.528 386.08 402.53 386 402.55Z" fill="#67BC45"/>
<path d="M333 409.23C332.07 409.23 331.18 409.1 330.88 408.68C330.802 408.572 330.76 408.443 330.76 408.31C330.76 408.177 330.802 408.048 330.88 407.94C330.937 407.839 331.015 407.752 331.108 407.683C331.201 407.614 331.307 407.565 331.42 407.54C332.63 407.21 335.15 408.65 335.26 408.71C335.289 408.729 335.312 408.756 335.327 408.788C335.341 408.82 335.345 408.855 335.34 408.89C335.335 408.924 335.32 408.955 335.296 408.98C335.273 409.005 335.243 409.022 335.21 409.03C334.48 409.16 333.741 409.226 333 409.23ZM331.85 407.83C331.74 407.814 331.629 407.814 331.52 407.83C331.45 407.843 331.385 407.871 331.327 407.912C331.27 407.954 331.223 408.008 331.19 408.07C331.07 408.28 331.11 408.38 331.19 408.44C331.53 408.91 333.36 408.92 334.7 408.73C333.826 408.252 332.869 407.947 331.88 407.83H331.85Z" fill="#67BC45"/>
<path d="M335.209 409H335.139C334.269 408.61 332.539 407.05 332.669 406.23C332.669 406.04 332.839 405.8 333.309 405.75C333.479 405.734 333.651 405.752 333.814 405.804C333.978 405.855 334.129 405.939 334.259 406.05C334.92 406.833 335.312 407.807 335.379 408.83C335.383 408.86 335.378 408.891 335.366 408.92C335.354 408.948 335.334 408.972 335.309 408.99C335.277 409.003 335.243 409.007 335.209 409ZM333.449 406.07H333.349C333.039 406.07 333.019 406.23 333.009 406.27C332.929 406.76 334.109 407.99 335.009 408.52C334.917 407.69 334.567 406.911 334.009 406.29C333.85 406.164 333.652 406.097 333.449 406.1V406.07Z" fill="#67BC45"/>
<path d="M343.159 408.86H335.929L335.209 392.12H342.439L343.159 408.86Z" fill="#FF8B7B"/>
<path d="M396.14 403.18L389.07 404.71L381.98 389.12L389.05 387.59L396.14 403.18Z" fill="#FF8B7B"/>
<path d="M388.401 404L396.331 402.29C396.471 402.258 396.618 402.276 396.748 402.34C396.877 402.403 396.98 402.509 397.041 402.64L399.791 408.64C399.857 408.786 399.89 408.944 399.886 409.105C399.882 409.265 399.842 409.422 399.769 409.564C399.696 409.707 399.592 409.831 399.464 409.927C399.336 410.023 399.188 410.089 399.031 410.12C396.251 410.67 394.871 410.8 391.381 411.55C389.231 412.02 384.381 413.2 381.381 413.84C378.381 414.48 377.381 411.63 378.551 411.11C383.731 408.74 385.901 406.65 387.301 404.71C387.567 404.345 387.959 404.092 388.401 404Z" fill="#263238"/>
<path d="M336 408H343.89C344.034 407.999 344.174 408.047 344.287 408.136C344.399 408.225 344.478 408.35 344.51 408.49L345.94 414.92C345.976 415.072 345.977 415.231 345.944 415.383C345.911 415.536 345.844 415.68 345.748 415.803C345.652 415.927 345.53 416.028 345.39 416.098C345.25 416.168 345.097 416.207 344.94 416.21C342.09 416.16 337.94 415.99 334.4 415.99C330.21 415.99 330.28 416.22 325.4 416.22C322.4 416.22 321.61 413.22 322.85 412.95C328.5 411.71 329.43 411.58 334.32 408.56C334.821 408.229 335.401 408.035 336 408Z" fill="#263238"/>
<path d="M328.56 175.73C325.8 180.84 322.9 185.73 319.79 190.57C316.669 195.494 313.274 200.238 309.62 204.78C309.16 205.36 308.62 205.93 308.14 206.5L307.39 207.37L306.5 208.28C305.91 208.88 305.37 209.36 304.79 209.89L303.11 211.35C300.87 213.24 298.61 215 296.33 216.73C291.76 220.18 287.09 223.42 282.26 226.49L278.85 222.26C282.79 218.26 286.85 214.26 290.85 210.33C292.85 208.33 294.85 206.41 296.73 204.46C297.66 203.46 298.6 202.46 299.38 201.59L299.92 200.94L300.51 200.17C300.9 199.64 301.3 199.17 301.68 198.59C304.79 194.25 307.68 189.54 310.58 184.8C313.48 180.06 316.27 175.22 319 170.45L328.56 175.73Z" fill="#FF8B7B"/>
<path d="M365.2 162.15C372 163.71 379.94 188 379.94 188L368.35 195.58C368.35 195.58 360.98 184.26 357.15 176.19C353.13 167.77 358.27 160.57 365.2 162.15Z" fill="#67BC45"/>
<g opacity="0.7">
<path d="M365.2 162.15C372 163.71 379.94 188 379.94 188L368.35 195.58C368.35 195.58 360.98 184.26 357.15 176.19C353.13 167.77 358.27 160.57 365.2 162.15Z" fill="white"/>
</g>
<path opacity="0.5" d="M361.349 174.62C360.759 173.85 359.149 175.62 357.939 177.85C359.619 181.17 361.739 184.85 363.619 187.99C364.789 181.92 362.879 176.57 361.349 174.62Z" fill="#67BC45"/>
<path d="M324.699 162.53C324.699 162.53 317.009 171.22 324.269 225H362.929C363.199 219.07 359.469 190.12 365.199 162.15C360.922 161.326 356.597 160.782 352.249 160.52C346.777 160.2 341.291 160.2 335.819 160.52C332.066 160.898 328.348 161.57 324.699 162.53Z" fill="#67BC45"/>
<path opacity="0.7" d="M324.699 162.53C324.699 162.53 317.009 171.22 324.269 225H362.929C363.199 219.07 359.469 190.12 365.199 162.15C360.922 161.326 356.597 160.782 352.249 160.52C346.777 160.2 341.291 160.2 335.819 160.52C332.066 160.898 328.348 161.57 324.699 162.53Z" fill="white"/>
<path opacity="0.5" d="M321.43 177.32C321.031 183.747 321.031 190.193 321.43 196.62C326.35 193.46 330.87 185.05 330.43 179.49L321.43 177.32Z" fill="#67BC45"/>
<path d="M177.98 163.59L176.81 165.49L167.59 159.08L168.19 158.12L177.98 163.59Z" fill="#67BC45"/>
<path d="M178.29 163.1L176.5 165.98L266.96 227.85L273.97 216.53L178.29 163.1Z" fill="#263238"/>
<path opacity="0.2" d="M177.96 163.64L176.84 165.44L268.26 225.74L272.66 218.64L177.96 163.64Z" fill="white"/>
<path d="M177.579 164.24L177.209 164.84L269.729 223.37L271.189 221L177.579 164.24Z" fill="#263238"/>
<path d="M275.351 238.21C274.365 238.211 273.399 237.937 272.561 237.42L273.211 236.42C273.717 236.727 274.283 236.922 274.871 236.992C275.459 237.063 276.056 237.008 276.621 236.83C277.857 236.439 278.913 235.62 279.598 234.52C280.284 233.42 280.554 232.112 280.361 230.83C280.267 230.246 280.051 229.689 279.725 229.196C279.399 228.702 278.971 228.285 278.471 227.97L270.141 222.8L270.791 221.75L279.121 226.92C279.769 227.325 280.324 227.864 280.748 228.5C281.172 229.136 281.456 229.856 281.581 230.61C281.823 232.185 281.494 233.796 280.655 235.15C279.815 236.505 278.519 237.516 277.001 238C276.464 238.151 275.908 238.222 275.351 238.21Z" fill="#263238"/>
<path d="M335.299 167.33C339.099 176.54 316.099 199.54 316.099 199.54L304.199 190.54C304.199 190.54 312.429 178.48 315.819 170.2C319.999 160 332.399 160.32 335.299 167.33Z" fill="#67BC45"/>
<path opacity="0.7" d="M335.299 167.33C339.099 176.54 316.099 199.54 316.099 199.54L304.199 190.54C304.199 190.54 312.429 178.48 315.819 170.2C319.999 160 332.399 160.32 335.299 167.33Z" fill="white"/>
<path d="M308.001 187.2C310.511 189.65 316.091 194.97 318.651 196.49C318.832 196.602 318.965 196.779 319.022 196.984C319.08 197.19 319.058 197.41 318.961 197.6C318.111 199.19 316.181 201.52 314.901 201.71C313.391 201.94 301.731 194.24 301.521 192.66C301.391 191.59 303.851 188.86 305.441 187.23C305.606 187.059 305.804 186.922 306.022 186.828C306.241 186.733 306.476 186.683 306.714 186.68C306.952 186.678 307.189 186.722 307.41 186.811C307.63 186.901 307.831 187.033 308.001 187.2Z" fill="#263238"/>
<path d="M366.089 190.59C369.219 189.02 376.089 185.48 378.339 183.59C378.505 183.454 378.716 183.387 378.93 183.402C379.144 183.416 379.344 183.512 379.489 183.67C380.719 184.99 382.289 187.57 382.059 188.84C381.779 190.35 370.689 198.84 369.139 198.54C368.079 198.32 366.309 195.1 365.279 193.07C365.166 192.855 365.097 192.619 365.077 192.376C365.056 192.134 365.085 191.89 365.16 191.659C365.236 191.428 365.357 191.214 365.516 191.03C365.676 190.847 365.871 190.697 366.089 190.59Z" fill="#263238"/>
<path d="M281.21 220.59L273.93 222.87L277.23 230.05C277.23 230.05 283.56 229.21 284.81 224.05L281.21 220.59Z" fill="#FF8B7B"/>
<path d="M270.619 226.69L273.269 231.44L277.229 230.05L273.929 222.87L270.619 226.69Z" fill="#FF8B7B"/>
<path opacity="0.2" d="M335.209 392.12L335.579 400.75H342.819L342.449 392.12H335.209Z" fill="black"/>
<path opacity="0.2" d="M389.05 387.6L381.98 389.13L385.64 397.16L392.71 395.63L389.05 387.6Z" fill="black"/>
<path d="M354 137.57C352.21 144.57 351.51 148.68 347.27 151.57C340.87 155.96 332.82 151.06 332.5 143.72C332.22 137.11 335.2 126.86 342.62 125.4C344.258 125.064 345.955 125.154 347.548 125.662C349.141 126.169 350.577 127.077 351.719 128.298C352.86 129.519 353.67 131.013 354.069 132.636C354.469 134.26 354.445 135.958 354 137.57Z" fill="#FF8B7B"/>
<path d="M337.739 139.24C337.168 138.111 336.976 136.828 337.193 135.581C337.409 134.334 338.021 133.191 338.939 132.32C336.719 131.17 334.669 127.22 336.809 124.94C331.059 123.61 334.239 117.64 343.169 118.22C352.099 118.8 345.109 122.57 345.109 122.57C345.109 122.57 364.329 124.06 357.389 131.06C360.439 132.89 360.719 139.06 356.389 142.01C349.389 146.81 351.559 152.17 346.229 151.21C341.369 150.33 337.169 144.89 337.739 139.24Z" fill="#263238"/>
<path d="M340.481 138.2C340.347 139.003 340.042 139.768 339.589 140.444C339.135 141.12 338.543 141.691 337.851 142.12C336.061 143.12 335.001 142.36 334.971 140.5C334.971 138.83 335.721 136.12 337.481 135.5C339.241 134.88 340.711 136.34 340.481 138.2Z" fill="#FF8B7B"/>
<path d="M338 225C338 225 346.2 280.24 350.7 300.93C355.64 323.59 382.01 396.24 382.01 396.24L394.94 393.44C394.94 393.44 375.2 325.44 372.39 302.99C369.33 278.63 362.94 224.99 362.94 224.99L338 225Z" fill="#263238"/>
<path d="M378.54 390.44C378.48 390.44 381.31 396.6 381.31 396.6L395.87 393.45L394.28 387.59L378.54 390.44Z" fill="#67BC45"/>
<path opacity="0.7" d="M378.54 390.44C378.48 390.44 381.31 396.6 381.31 396.6L395.87 393.45L394.28 387.59L378.54 390.44Z" fill="white"/>
<path opacity="0.3" d="M343.169 244.68C352.659 246.54 351.649 281.91 350.509 300.1C347.779 287.24 343.769 262.5 341.039 244.94C341.697 244.609 342.45 244.517 343.169 244.68Z" fill="black"/>
<path d="M324.27 225C324.27 225 323.27 279 324.07 301.08C324.88 324.01 332.89 399.08 332.89 399.08H345.14C345.14 399.08 345.59 325.35 346.14 302.83C346.73 278.29 349.7 225 349.7 225H324.27Z" fill="#263238"/>
<path d="M330.529 392.71L331.229 399.29H346.119L346.519 393.29L330.529 392.71Z" fill="#67BC45"/>
<path opacity="0.7" d="M330.529 392.71L331.229 399.29H346.119L346.519 393.29L330.529 392.71Z" fill="white"/>
</svg>
